<?xml version="1.0" encoding="UTF-8"?>
<svg id="uuid-a50a675e-a861-4e7f-8dc3-09e94dbddd6d" data-name="Layer 2" xmlns="http://www.w3.org/2000/svg" viewBox="0 0 277 278.7">
  <g id="uuid-80d47ef3-8643-4394-805b-748a404e6213" data-name="Layer 1">
    <g>
      <polygon points="105.3 50.7 93.6 44.3 138 20.6 149.7 27 105.3 50.7" fill="#204059" stroke-width="0"/>
      <polygon points="121.2 59.5 109.5 53.2 153.9 29.5 165.7 35.8 121.2 59.5" fill="#204059" stroke-width="0"/>
      <g>
        <g>
          <path d="m143.4,155.1c-.5-.9-1.3-1.7-2.3-2.2l-2.6-1.5-63.2-36.5c-2-1.1-4.4-1.1-6.3,0l-3.2,1.8L3.2,152.9c-1.1.6-1.9,1.5-2.5,2.6-.5.9-.7,1.9-.7,2.9v76c0,2.3,1.2,4.4,3.2,5.5l65.8,38c1,.6,2.1.8,3.2.8s2.2-.3,3.2-.8l63.2-36.5,2.6-1.5c2-1.1,3.2-3.2,3.2-5.5v-76c0-1.2-.3-2.3-.9-3.2Zm-77.6,106.3l-53.2-30.7v-61.4l53.2,30.7v61.4Zm6.3-72.3l-53.2-30.7,53.2-30.7,53.2,30.7-53.2,30.7Zm59.5,41.7l-53.2,30.7v-61.4l53.2-30.7v61.4Z" fill="#128d8d" stroke-width="0"/>
          <path d="m276.1,155.1c-.5-.9-1.3-1.7-2.3-2.2l-63.7-36.8-2.1-1.2c-2-1.1-4.4-1.1-6.3,0l-63.2,36.5-2.6,1.5c-1.1.6-1.9,1.5-2.5,2.6-.4.9-.7,1.9-.7,2.9v76c0,2.3,1.2,4.4,3.2,5.5l2.6,1.5,63.2,36.5c1,.6,2.1.8,3.2.8h0c1.1,0,2.2-.3,3.2-.8l65.8-38c2-1.1,3.2-3.2,3.2-5.5v-76c0-1.2-.3-2.3-.9-3.2Zm-77.6,106.3l-53.2-30.7v-61.4l53.2,30.7v61.4Zm6.3-72.3l-53.2-30.7,53.2-30.7,53.2,30.7-53.2,30.7Zm59.5,41.7l-53.2,30.7v-61.4l53.2-30.7v61.4Z" fill="#128d8d" stroke-width="0"/>
          <path d="m209.2,41.1c-.5-.9-1.3-1.7-2.3-2.2L141.1.8c-2-1.1-4.4-1.1-6.3,0l-65.8,38c-1.1.6-1.9,1.5-2.5,2.6-.5.9-.7,1.9-.7,2.9v76c0,2.2,1.2,4.3,3.2,5.5l63.7,36.8,2.1,1.2c1,.6,2.1.8,3.2.8s2.2-.3,3.2-.8l3.2-1.8,62.6-36.2c2-1.1,3.2-3.2,3.2-5.5V44.3c0-1.2-.3-2.3-.9-3.3Zm-11.7,75.6l-53.2,30.7v-61.4l53.2-30.7v61.4ZM137.9,13.6l53.2,30.7-53.2,30.7-53.2-30.7,53.2-30.7Zm-59.5,41.7l53.2,30.7v61.4l-53.2-30.7v-61.4Z" fill="#128d8d" stroke-width="0"/>
        </g>
        <polygon points="138 68 126.2 61.8 170.5 38.1 182.3 44.3 138 68" fill="#204059" stroke-width="0"/>
        <g>
          <polygon points="172.2 164.7 160.4 158.4 204.9 134.7 216.6 141 172.2 164.7" fill="#204059" stroke-width="0"/>
          <polygon points="204.9 182.1 193.1 175.8 237.4 152.1 249.2 158.4 204.9 182.1" fill="#204059" stroke-width="0"/>
          <polygon points="188.1 173.5 176.3 167.2 220.8 143.5 232.5 149.8 188.1 173.5" fill="#204059" stroke-width="0"/>
        </g>
        <polygon points="39.5 164.8 27.7 158.5 72.2 134.8 83.9 141.1 39.5 164.8" fill="#204059" stroke-width="0"/>
        <polygon points="72.2 182.2 60.4 175.9 104.7 152.2 116.5 158.5 72.2 182.2" fill="#204059" stroke-width="0"/>
        <polygon points="55.4 173.6 43.6 167.4 88.1 143.7 99.8 149.9 55.4 173.6" fill="#204059" stroke-width="0"/>
      </g>
    </g>
  </g>
</svg>